<svg width="314" height="160" viewBox="0 0 314 160" fill="none" xmlns="http://www.w3.org/2000/svg">
<path fill-rule="evenodd" clip-rule="evenodd" d="M161.78 40C160.911 40 160.042 39.7507 159.297 39.2522C157.931 38.3798 157.062 36.8841 157.062 35.1393V4.72858C157.062 3.10834 157.931 1.61273 159.297 0.74029C160.663 -0.132148 162.401 -0.256782 163.891 0.491022L194.186 15.821C195.8 16.5688 196.793 18.1891 196.793 20.0586C196.793 21.8034 195.8 23.5483 194.186 24.2961L163.891 39.5015C163.27 39.8754 162.525 40 161.78 40Z" fill="url(#paint0_linear_501_26)"/>
<path d="M158.8 77.7975C193.193 131.644 272.165 150.414 296.5 156.115L314 159.306V153.077C314 149.381 311.02 146.108 306.799 145.369C305.681 145.158 195.924 123.62 167.74 55.8367C166.374 52.6692 162.898 50.5576 158.924 50.5576C154.951 50.5576 151.475 52.6692 150.109 55.8367C121.925 123.62 8.56702 145.158 7.32543 145.369C2.97983 146.108 0 149.381 0 153.077V159.306L21 156.115C32.1744 153.581 52.2712 150.859 76.979 140.196C114.848 123.831 142.784 102.503 158.8 77.7975Z" fill="url(#paint1_linear_501_26)"/>
<defs>
<linearGradient id="paint0_linear_501_26" x1="46.4852" y1="76.2885" x2="279.427" y2="262.378" gradientUnits="userSpaceOnUse">
<stop stop-color="#FFD500"/>
<stop offset="1" stop-color="#EC6907"/>
</linearGradient>
<linearGradient id="paint1_linear_501_26" x1="46.4852" y1="86.5539" x2="157.891" y2="260.052" gradientUnits="userSpaceOnUse">
<stop stop-color="#FFD500"/>
<stop offset="1" stop-color="#EC6907"/>
</linearGradient>
</defs>
</svg>
