<?xml version="1.0" encoding="utf-8"?>
<!-- Generator: Adobe Illustrator 21.0.0, SVG Export Plug-In . SVG Version: 6.00 Build 0)  -->
<!DOCTYPE svg PUBLIC "-//W3C//DTD SVG 1.1//EN" "http://www.w3.org/Graphics/SVG/1.1/DTD/svg11.dtd">
<svg version="1.1" id="Laag_1" xmlns="http://www.w3.org/2000/svg" xmlns:xlink="http://www.w3.org/1999/xlink" x="0px" y="0px"
	 viewBox="0 0 253.6 258" enable-background="new 0 0 253.6 258" xml:space="preserve">
<linearGradient id="SVGID_1_" gradientUnits="userSpaceOnUse" x1="37.8821" y1="78.9698" x2="243.5653" y2="211.0161">
	<stop  offset="0" style="stop-color:#FFD500"/>
	<stop  offset="1" style="stop-color:#EC6907"/>
</linearGradient>
<path fill="url(#SVGID_1_)" d="M137.6,220.4h1.5c3.4,0,6.1-2.8,6.1-6.1v-12.7c0-3.4-2.8-6.1-6.1-6.1h-1.5c-3.4,0-6.1,2.8-6.1,6.1
	v12.7C131.4,217.6,134.2,220.4,137.6,220.4z M128.8,31.7c0.6,0.4,1.3,0.6,2,0.6c0.6,0,1.2-0.1,1.7-0.4l24.4-12.2
	c1.3-0.6,2.1-2,2.1-3.4c0-1.5-0.8-2.8-2.1-3.4L132.5,0.6c-1.2-0.6-2.6-0.5-3.7,0.2c-1.1,0.7-1.8,1.9-1.8,3.2v24.4
	C127,29.8,127.7,31,128.8,31.7z M181.8,166h-32.5l15.1-15.1c1.2-1.2,1.8-2.7,1.8-4.3c0-1.6-0.6-3.2-1.8-4.3l-1.1-1.1
	c-2.4-2.4-6.3-2.4-8.7,0L129.8,166h-11.7l-24.8-24.8c-2.4-2.4-6.3-2.4-8.7,0l-1.1,1.1c-1.2,1.2-1.8,2.7-1.8,4.3
	c0,1.6,0.6,3.2,1.8,4.3L98.6,166H66.1c-3.4,0-6.1,2.8-6.1,6.1v1.5c0,2.9,1.9,5.3,4.9,6l2.7,0.2l2.5,47.6l0.1,0.4
	c1.4,8.6,7.9,10.9,17.5,14.8l34.9,14.6c0.9,0.3,1.8,0.3,2.6,0l35.2-14.6c8.5-3.7,16-6.2,17.5-14.9l2.6-47.9l1.9,0l1-0.3
	c2.8-0.7,4.7-3.2,4.7-6v-1.4C188,168.8,185.2,166,181.8,166z M164.1,226.1c-0.5,1.7-2.2,1.9-3.8,2.8l-33.8,14.5
	c-1.6,0.6-3.4,0.6-5.1,0l-33.8-14.5c-1.9-1.1-3.4-1.2-3.8-2.7l-2.5-46.3h85.2L164.1,226.1z M247.6,132.1
	c-0.9-0.2-89.3-20.6-112-84.8c-1.1-3-3.9-5-7.1-5c-3.2,0-6,2-7.1,5c-22.7,64.2-114,84.6-115,84.8c-3.5,0.7-5.9,3.8-5.9,7.3v54.1
	c0,4.1,3.4,7.5,7.5,7.5s7.5-3.4,7.5-7.5v-48.2c9-2.4,27.1-8,47-18.1c30.5-15.5,53-35.7,65.9-59.1c27.7,51,90.4,71.8,110,77.2v48.2
	c0,4.1,3.4,7.5,7.5,7.5s7.5-3.4,7.5-7.5v-54.1C253.4,135.9,251,132.8,247.6,132.1z M108.9,220.4h1.5c3.4,0,6.1-2.8,6.1-6.1v-12.7
	c0-3.4-2.8-6.1-6.1-6.1h-1.5c-3.4,0-6.1,2.8-6.1,6.1v12.7C102.7,217.6,105.5,220.4,108.9,220.4z"/>
</svg>
