<svg width="239" height="145" viewBox="0 0 239 145" fill="none" xmlns="http://www.w3.org/2000/svg">
<path fill-rule="evenodd" clip-rule="evenodd" d="M118.291 31.9671C117.601 31.9671 116.912 31.7679 116.321 31.3694C115.238 30.6722 114.549 29.477 114.549 28.0825V3.77897C114.549 2.48411 115.238 1.28885 116.321 0.591622C117.404 -0.105609 118.783 -0.205214 119.964 0.392413L143.988 12.6438C145.268 13.2414 146.056 14.5363 146.056 16.0303C146.056 17.4248 145.268 18.8193 143.988 19.4169L119.964 31.5686C119.472 31.8675 118.881 31.9671 118.291 31.9671Z" fill="url(#paint0_linear_502_55)"/>
<path d="M225.992 144.593C238 145.5 243.663 135.43 230.5 130.072C207.481 122.937 142.813 98.583 124.777 46.9802C123.694 43.9921 120.937 42 117.787 42C114.636 42 111.879 43.9921 110.796 46.9802C92.6524 98.892 15.0292 124.538 6.26054 130.072C-2.50809 135.607 -1.7394 144.072 6.52928 144.593C14.798 145.113 33.2114 136.624 52.8045 126.564C82.8342 111.126 104.987 91.0054 117.688 67.698C144.961 118.496 213.984 143.685 225.992 144.593Z" fill="url(#paint1_linear_502_55)"/>
<defs>
<linearGradient id="paint0_linear_502_55" x1="26.8625" y1="66.2012" x2="235.426" y2="206.252" gradientUnits="userSpaceOnUse">
<stop stop-color="#FFD500"/>
<stop offset="1" stop-color="#EC6907"/>
</linearGradient>
<linearGradient id="paint1_linear_502_55" x1="35.2427" y1="75.9778" x2="148.051" y2="217.084" gradientUnits="userSpaceOnUse">
<stop stop-color="#FFD500"/>
<stop offset="1" stop-color="#EC6907"/>
</linearGradient>
</defs>
</svg>
